<svg width="35" height="35" viewBox="0 0 35 35" fill="none" xmlns="http://www.w3.org/2000/svg">
<path d="M7.66 17.3H14.38V19.9H7.66V17.3ZM7.9 25H4.66V11H15.24V13.6H7.9V25ZM17.4334 25V11H23.4934C24.7468 11 25.8268 11.2067 26.7334 11.62C27.6401 12.02 28.3401 12.6 28.8334 13.36C29.3268 14.12 29.5734 15.0267 29.5734 16.08C29.5734 17.12 29.3268 18.02 28.8334 18.78C28.3401 19.5267 27.6401 20.1 26.7334 20.5C25.8268 20.9 24.7468 21.1 23.4934 21.1H19.2334L20.6734 19.68V25H17.4334ZM26.3334 25L22.8334 19.92H26.2934L29.8334 25H26.3334ZM20.6734 20.04L19.2334 18.52H23.3134C24.3134 18.52 25.0601 18.3067 25.5534 17.88C26.0468 17.44 26.2934 16.84 26.2934 16.08C26.2934 15.3067 26.0468 14.7067 25.5534 14.28C25.0601 13.8533 24.3134 13.64 23.3134 13.64H19.2334L20.6734 12.1V20.04Z" fill="#20B486"/>
<circle cx="17.5" cy="17.5" r="16.5" stroke="#20B486" stroke-width="2"/>
</svg>
